<svg id="Layer_1" data-name="Layer 1" xmlns="http://www.w3.org/2000/svg" viewBox="0 0 100 100"><defs><style>.cls-1{fill:#3f332c;}.cls-2{fill:#5a4a42;}.cls-3{fill:#d3eefb;}.cls-4{fill:#87d5f7;}.cls-5{fill:#ade1f9;}.cls-6{fill:#d1edfb;}.cls-7{fill:#a7dff8;}.cls-8{fill:#fff;}.cls-9{fill:#317891;}.cls-10{fill:#56caf4;}</style></defs><title>Artboard 1</title><g id="_Group_" data-name="&lt;Group&gt;"><g id="_Group_2" data-name="&lt;Group&gt;"><path id="_Path_" data-name="&lt;Path&gt;" class="cls-1" d="M65.74,61.7c.14,2.08,1,4,1.44,6,.16.75-.05,3.68,1.52,2.25a4.88,4.88,0,0,0,.93-2.66,11.79,11.79,0,0,0,.09-3.93,5.13,5.13,0,0,0-2-3.29,1.48,1.48,0,0,0-1.07-.32,1.16,1.16,0,0,0-.82.77A2.68,2.68,0,0,0,65.74,61.7Z"/><path id="_Path_2" data-name="&lt;Path&gt;" class="cls-2" d="M61.88,61.64c2-2.67,4.38-1.36,5.56,1.1a13.54,13.54,0,0,1,1,7.54A4.21,4.21,0,0,1,67.1,73a1,1,0,0,1-.67.26.87.87,0,0,1-.73-.66,3.08,3.08,0,0,1,0-1,11.6,11.6,0,0,0-.79-4.81c-.08-.2-.2-.42-.42-.44a.44.44,0,0,0-.33.12,2.08,2.08,0,0,0-.43,2.16c.07.29.13.64-.1.82a.63.63,0,0,1-.65,0,4,4,0,0,1-2-3.36A6.15,6.15,0,0,1,61.88,61.64Z"/><path id="_Path_3" data-name="&lt;Path&gt;" class="cls-1" d="M31.71,86.85a4.49,4.49,0,0,0,1.54-1.58,1.88,1.88,0,0,0,.17-1.48,1.29,1.29,0,0,0-1.16-.86,1.61,1.61,0,0,0-1.1.62c-.29.32-.52.7-.82,1-.67.69-1.59.88-2.28,1.59a2.73,2.73,0,0,0-1,2.66.77.77,0,0,0,.23.4c.28.23.7.08,1-.09,1-.56,1.9-1.35,2.89-2Z"/><path id="_Path_4" data-name="&lt;Path&gt;" class="cls-2" d="M35.06,89c-.14-.22-.27-.47-.43-.68-1.62-2.05-3.3.67-4.15,1.88a1.8,1.8,0,0,1-.51.52.82.82,0,0,1-.71.1.86.86,0,0,1-.48-.61,2.21,2.21,0,0,1,0-.81,6,6,0,0,1,.89-2.43c.44-.65,1.06-1.18,1.44-1.87.58-1,.27-2.2,1.33-3a2.12,2.12,0,0,1,3.25,1,12,12,0,0,0,.65,1.85,8.85,8.85,0,0,1,.91,2.26,2.59,2.59,0,0,1-.1,1.78,1.23,1.23,0,0,1-1.52.64A1.55,1.55,0,0,1,35.06,89Z"/><path id="_Path_5" data-name="&lt;Path&gt;" class="cls-1" d="M45.53,86.85A4.57,4.57,0,0,1,44,85.27a1.87,1.87,0,0,1-.16-1.48A1.26,1.26,0,0,1,45,82.93a1.65,1.65,0,0,1,1.11.62c.28.32.51.7.81,1,.67.69,1.59.88,2.28,1.59a2.73,2.73,0,0,1,1,2.66.77.77,0,0,1-.23.4c-.28.23-.7.08-1-.09-1-.56-1.9-1.35-2.89-2Z"/><path id="_Path_6" data-name="&lt;Path&gt;" class="cls-2" d="M42.18,89c.15-.22.27-.47.44-.68,1.62-2.05,3.3.67,4.14,1.88a1.8,1.8,0,0,0,.51.52.82.82,0,0,0,.71.1.86.86,0,0,0,.48-.61,2,2,0,0,0,0-.81,5.9,5.9,0,0,0-.89-2.43c-.44-.65-1.06-1.18-1.44-1.87-.58-1-.27-2.2-1.33-3a2.12,2.12,0,0,0-3.25,1,12,12,0,0,1-.65,1.85A8.85,8.85,0,0,0,40,87.15a2.59,2.59,0,0,0,.1,1.78,1.23,1.23,0,0,0,1.52.64A1.55,1.55,0,0,0,42.18,89Z"/><path id="_Path_7" data-name="&lt;Path&gt;" class="cls-3" d="M43.59,44.37a30.72,30.72,0,0,1,11.31,0L52,45c5.22,1.82,9.86,4.94,14.44,8l-2.7-.48c3.23,2.8,5,6.87,6.66,10.79L66.78,61.1l-.59,5c-1.24-1-2.45-2.12-3.62-3.23A11.39,11.39,0,0,0,60.7,66,24.89,24.89,0,0,0,48,48.18C44.41,46.22,43.59,44.37,43.59,44.37Z"/><path id="_Path_8" data-name="&lt;Path&gt;" class="cls-4" d="M43.69,44.32l.63-.11a38.75,38.75,0,0,1,17.83,13.7c-.82-.32-1.56-.84-2.38-1.16a21.18,21.18,0,0,1,2.48,6.61,11.27,11.27,0,0,0-1.45,2.55A24.91,24.91,0,0,0,48.11,48.13C44.51,46.18,43.69,44.32,43.69,44.32Z"/><path id="_Path_9" data-name="&lt;Path&gt;" class="cls-3" d="M40.42,73.34a.56.56,0,0,1-.06.31.54.54,0,0,1-.36.15,7.35,7.35,0,0,0-3.49,1.57,4.13,4.13,0,0,0-1.68,3,5.68,5.68,0,0,0,.36,1.72c.34,1,.67,2.08,1,3.12l.05.15-.07-.06a5.23,5.23,0,0,0-1.37-.92l0,1.48,0,.92c-.76-.58-1.55-1.14-2.35-1.66a7.07,7.07,0,0,0-.18,2.15,17.13,17.13,0,0,1-3.34-5.54,5.14,5.14,0,0,1-.19-3.9,5.91,5.91,0,0,0-1.85.91,9.26,9.26,0,0,1,4.06-4.13l.43-.23a15.56,15.56,0,0,1,4-1.45c1.13-.23,3.16-.67,4.2,0A2.88,2.88,0,0,1,40.42,73.34Z"/><path id="_Path_10" data-name="&lt;Path&gt;" class="cls-4" d="M36.56,58.36c-3.47-.15-9.07-.47-10.93,3.28-.55,1.11,0,2.07.33,3.21a24.63,24.63,0,0,0,3.67,7.29,12.52,12.52,0,0,0,3.8,3.63,6.39,6.39,0,0,0,5.09.7c1.78-.57,3.09-2.06,4.27-3.51,2.58-3.14,5.1-6.54,6-10.52a3.22,3.22,0,0,0-.43-2.93,3.55,3.55,0,0,0-2.5-.75Z"/><path id="_Path_11" data-name="&lt;Path&gt;" class="cls-5" d="M52.1,52.66a20.52,20.52,0,0,1,.43,10.77,6.68,6.68,0,0,1-1.32-2.6A14.05,14.05,0,0,1,46,67.33c.07-.77.13-1.53.19-2.3a36.52,36.52,0,0,1-8.84,4.18A36.52,36.52,0,0,1,28.5,65l.18,2.3a14.09,14.09,0,0,1-5.21-6.5,6.68,6.68,0,0,1-1.32,2.6,20.55,20.55,0,0,1,.43-10.78l-1.42.87c1.19-2.44,2.43-4.69,4.58-6.08l0,0A8.82,8.82,0,0,1,27,46.77a35,35,0,0,1,10.36-2,35,35,0,0,1,10.36,2,7.8,7.8,0,0,1,1.11.59,9.35,9.35,0,0,1,2.61,2.48,24.17,24.17,0,0,1,2.1,3.68l-1.42-.87Z"/><g id="_Group_3" data-name="&lt;Group&gt;"><path id="_Path_12" data-name="&lt;Path&gt;" class="cls-6" d="M29.72,31.15c1.53,2,1.74,3.35,2.81,5.63-2.29-2.06-4.5-1.6-7.57-1.86l3.58,3.31a14.78,14.78,0,0,0-5.88,5.43l2.48.12A12.7,12.7,0,0,0,23.34,51a4.65,4.65,0,0,1,2.16-1.65,16.9,16.9,0,0,0,.78,6.77,8.85,8.85,0,0,1,2.1-3A30.11,30.11,0,0,0,33,58.88a14.86,14.86,0,0,1,1-3.64,20.1,20.1,0,0,0,4.76,4.89c.62-2.38,1.14-4.8,1.56-7.23A6.43,6.43,0,0,1,42,56.35a21.93,21.93,0,0,0,2.14-6.54l1.7,1.36a14.62,14.62,0,0,0-.11-5.93l1.83.38a12.76,12.76,0,0,0-4.3-6.34,5.1,5.1,0,0,1,2.79.24c-.37-.15-.92-1.06-1.3-1.35a7.48,7.48,0,0,0-1.82-1,11.94,11.94,0,0,0-4.38-.81c-.1,0-1.65-1.56-1.87-1.74-.53-.44-1-.94-1.53-1.34A13.94,13.94,0,0,0,29.72,31.15Z"/><path id="_Path_13" data-name="&lt;Path&gt;" class="cls-7" d="M43.88,45.31a8.23,8.23,0,0,0-5.41-4.81,9.5,9.5,0,0,0-4.16-.16,9.61,9.61,0,0,0-3.71,1.9,8.22,8.22,0,0,0-2.88,6.65c.08,1.22.81,2.66,2.13,2.58.93,0,3.63.11,4,.58a3.84,3.84,0,0,0,3.25,1.12,3.85,3.85,0,0,0,2.48-2.38c.17-.6,2.56-1.89,3.42-2.23C44.26,48.07,44.32,46.45,43.88,45.31Z"/><path id="_Path_14" data-name="&lt;Path&gt;" class="cls-8" d="M32.12,43.75c1.27-.28.41-1.22-.46-1.17a4.27,4.27,0,0,0-1.93.65,5.22,5.22,0,0,0-1.91,2.25,1.88,1.88,0,0,0,.69-.23,3.76,3.76,0,0,0,.16,1.91,7.61,7.61,0,0,1,.91-2.06,2.89,2.89,0,0,1,1.8-1.26C31.62,43.8,31.88,43.8,32.12,43.75Z"/><path id="_Path_15" data-name="&lt;Path&gt;" class="cls-8" d="M37.73,42.5c-1.26.29-.88-.92-.07-1.24a4.22,4.22,0,0,1,2-.23,5.37,5.37,0,0,1,2.69,1.24,2,2,0,0,1-.73.08,3.75,3.75,0,0,1,.66,1.79,8.24,8.24,0,0,0-1.69-1.48,2.87,2.87,0,0,0-2.17-.38C38.2,42.34,38,42.45,37.73,42.5Z"/><path id="_Path_16" data-name="&lt;Path&gt;" class="cls-1" d="M31.73,45.48c.41.37.76,1.46.07,1.65-.47.14-.83-.31-.89-.75a1.62,1.62,0,0,1,.11-.72.59.59,0,0,1,.12-.22.41.41,0,0,1,.5,0Z"/><path id="_Path_17" data-name="&lt;Path&gt;" class="cls-1" d="M39,43.88c-.22.5-.07,1.64.63,1.53a.77.77,0,0,0,.49-1.06,1.75,1.75,0,0,0-.4-.61.62.62,0,0,0-.21-.15.42.42,0,0,0-.46.19A.93.93,0,0,0,39,43.88Z"/><path id="_Path_18" data-name="&lt;Path&gt;" class="cls-9" d="M36.43,50.71c-1.49.31-4.4.19-4.37-1.19,0-.37.34-.58.8-.71a5.31,5.31,0,0,1,.77-.14c.7-.09,1.48-.1,1.91-.19.22,0,.48-.13.75-.22L37,48c.32-.11.64-.22,1-.31h0a5.27,5.27,0,0,1,.64-.14,1.92,1.92,0,0,1,.8,0C41,48,37.81,50.42,36.43,50.71Z"/><path id="_Path_19" data-name="&lt;Path&gt;" class="cls-8" d="M33.63,48.67a.93.93,0,0,1-.09.4.36.36,0,0,1-.33.22c-.2,0-.33-.26-.35-.48A5.31,5.31,0,0,1,33.63,48.67Z"/><path id="_Path_20" data-name="&lt;Path&gt;" class="cls-8" d="M38.7,47.76a1.13,1.13,0,0,1-.05.41.38.38,0,0,1-.32.24c-.29,0-.47-.46-.36-.71h0a5.27,5.27,0,0,1,.64-.14A.25.25,0,0,1,38.7,47.76Z"/><path id="_Path_21" data-name="&lt;Path&gt;" class="cls-8" d="M37,48a1.2,1.2,0,0,1,0,.42.37.37,0,0,1-.26.3c-.24.05-.48-.25-.51-.5L37,48A0,0,0,0,1,37,48Z"/></g><path id="_Path_22" data-name="&lt;Path&gt;" class="cls-4" d="M40.42,73.34a.56.56,0,0,1-.06.31.54.54,0,0,1-.36.15,7.35,7.35,0,0,0-3.49,1.57,4.13,4.13,0,0,0-1.68,3,5.68,5.68,0,0,0,.36,1.72c.34,1,.67,2.08,1,3.12a.29.29,0,0,1,0,.09,4.85,4.85,0,0,0-.11,2c-.43-.48-.87-1-1.29-1.45a21.32,21.32,0,0,1-2.18-2.92,9.39,9.39,0,0,1-1.46-5.31l-1.22,1.12a15,15,0,0,0,.35-2.19,16.89,16.89,0,0,1,1-2l.06-.13a15.56,15.56,0,0,1,4-1.45c1.13-.23,3.16-.67,4.2,0A2.88,2.88,0,0,1,40.42,73.34Z"/><path id="_Path_23" data-name="&lt;Path&gt;" class="cls-4" d="M43.34,78.14a5.84,5.84,0,0,1,1.94.77,9.66,9.66,0,0,0-4.47-5.13,2.47,2.47,0,0,0-.81.06c-2,.61-1.09,2-.23,3.29A8.06,8.06,0,0,1,40.88,80a13.25,13.25,0,0,1-.12,5.29A13.22,13.22,0,0,1,42.5,83.5a6.94,6.94,0,0,1,.38.71A9.4,9.4,0,0,0,43.34,78.14Z"/><path id="_Path_24" data-name="&lt;Path&gt;" class="cls-3" d="M46.62,77.35a7.81,7.81,0,0,0-5.81-3.57,9.66,9.66,0,0,1,4.47,5.13,5.84,5.84,0,0,0-1.94-.77,9.4,9.4,0,0,1-.46,6.07,5.92,5.92,0,0,1,.32.89,4.91,4.91,0,0,0,1.27-1.52,7.49,7.49,0,0,1,.79,1.7,21.57,21.57,0,0,0,1.81-5.41,3.6,3.6,0,0,0,.86.47A5.48,5.48,0,0,0,46.62,77.35Z"/></g><path id="_Path_25" data-name="&lt;Path&gt;" class="cls-1" d="M42.62,64.8a5,5,0,0,1-2.78,1.72c-.81.08-2.44-.31-1.91-1.42.72-1.51,2.65-2.38,4.17-2.75a.91.91,0,0,1,.76.06.7.7,0,0,1,.22.38A2.32,2.32,0,0,1,42.62,64.8Z"/><g id="_Group_4" data-name="&lt;Group&gt;"><path id="_Path_26" data-name="&lt;Path&gt;" class="cls-1" d="M59.05,69.39C49.53,68.6,52.47,88,53.33,88h9.61A28.19,28.19,0,0,1,59.05,69.39Z"/><path id="_Path_27" data-name="&lt;Path&gt;" class="cls-4" d="M62.59,50c-1.55-.12-2.77.58-4.15.87C61.79,42.12,67,34.51,71.1,26.24c-1-.26-2,.25-2.95.38,4.19-6.92,8.41-14.27,14.5-19.79.11-.21.23-.42.35-.62C73.21,9.8,60.56,18.07,56.78,22.12a18.29,18.29,0,0,1,7.16.3A80.2,80.2,0,0,0,41.7,50.16a14.39,14.39,0,0,1,6-.84C45.13,49.15,38,70.11,36.79,76c3.14-.94,14.29-1.2,24-1A86.12,86.12,0,0,1,62.59,50Z"/><path id="_Path_28" data-name="&lt;Path&gt;" class="cls-10" d="M68.15,26.53c1-.12,2-.63,2.95-.37C67,34.43,61.79,42,58.44,50.74c1.38-.29,2.6-1,4.15-.87a86.22,86.22,0,0,0-1.83,25c8.21.14,15.36.59,15.62,1.2a66.1,66.1,0,0,1-5.45-26l6,8.16A71.87,71.87,0,0,1,75.45,25l4,6.65c-.59-8.11-.47-18.24,3.18-24.93C76.56,12.27,72.34,19.61,68.15,26.53Z"/></g><path id="_Path_29" data-name="&lt;Path&gt;" class="cls-2" d="M44.88,64a.49.49,0,0,1,.46.11.45.45,0,0,1,0,.36c-.34,1.31-2,1.72-3,2.62a8.13,8.13,0,0,1,3.07,0,.93.93,0,0,1,.49.2A.67.67,0,0,1,46,68a1.75,1.75,0,0,1-.66.54,10.39,10.39,0,0,1-4.65,1.28,1.48,1.48,0,0,1,1.26.51.48.48,0,0,1,.13.31c0,.22-.25.34-.46.41a10.29,10.29,0,0,1-6.49,0,3,3,0,0,1-2-1.51C31.32,64.86,42.8,64.15,44.88,64Z"/><path id="_Path_30" data-name="&lt;Path&gt;" class="cls-3" d="M21.75,64.09c.2-.78,0-1.55.59-2.13,3.71,4.71,10.15,6.58,16.23,5.85.44-.18.84-.35,1.15-.51l-3.14-.91a26.32,26.32,0,0,0,3.62-4.24,14.14,14.14,0,0,1-10.47-.07c-2.48-1.08-7.46-4.37-7-7.54.18-1.18,1.48-2,1.65-2.95a1,1,0,0,0-.79-1.28,1.69,1.69,0,0,0-.33,0,8.66,8.66,0,0,0-2,0A17.8,17.8,0,0,0,21.75,64.09Z"/><path id="_Path_31" data-name="&lt;Path&gt;" class="cls-4" d="M38.57,67.81c-6.08.73-12.52-1.14-16.23-5.85-.59.58-.39,1.35-.59,2.13a17.8,17.8,0,0,1-.44-13.79A9.32,9.32,0,0,0,17,52a7.84,7.84,0,0,1,2.69.08,8.53,8.53,0,0,0-1,1.7A11.59,11.59,0,0,0,18,60.91L19,59.46a20.62,20.62,0,0,0,.94,5.3,6.83,6.83,0,0,0,3.42,4c-.27-.8-.53-1.61-.8-2.42a20.68,20.68,0,0,0,7.79,5,17.14,17.14,0,0,0,8.85.75L35,69.27C35.82,68.83,37.36,68.3,38.57,67.81Z"/></g></svg>